<?xml version="1.0" encoding="utf-8"?>
<!-- Generator: Adobe Illustrator 25.3.0, SVG Export Plug-In . SVG Version: 6.00 Build 0)  -->
<svg version="1.1" id="Layer_1" xmlns="http://www.w3.org/2000/svg" xmlns:xlink="http://www.w3.org/1999/xlink" x="0px" y="0px"
	 viewBox="0 0 202 132" style="enable-background:new 0 0 202 132;" xml:space="preserve">
<style type="text/css">
	.st0{fill:#090D15;}
	.st1{fill:url(#SVGID_1_);}
	.st2{fill:url(#SVGID_2_);}
	.st3{fill:url(#SVGID_3_);}
	.st4{fill:url(#SVGID_4_);}
	.st5{fill:url(#SVGID_5_);}
	.st6{fill:url(#SVGID_6_);}
	.st7{fill:url(#SVGID_7_);}
	.st8{fill:url(#SVGID_8_);}
	.st9{fill:url(#SVGID_9_);}
	.st10{fill:url(#SVGID_10_);}
	.st11{fill:url(#SVGID_11_);}
	.st12{fill:url(#SVGID_12_);}
	.st13{fill:url(#SVGID_13_);}
	.st14{fill:url(#SVGID_14_);}
	.st15{fill:url(#SVGID_15_);}
	.st16{fill:url(#SVGID_16_);}
	.st17{fill:url(#SVGID_17_);}
	.st18{fill:url(#SVGID_18_);}
	.st19{fill:url(#SVGID_19_);}
	.st20{fill:url(#SVGID_20_);}
	.st21{fill:url(#SVGID_21_);}
	.st22{fill:url(#SVGID_22_);}
</style>
<g>
	<path class="st0" d="M-310.7-213.6c3.3-0.1,5.9-1.4,8.8-4.7c1.6-1.8,2.9-6.1,1.7-8.7c-1-2.1-3.2-3.9-5.7-3.9
		c-3.8,0-6.4,3.2-6.3,6.6c0,0.7,0.2,1.4,0.4,1.9c0.1,0.3,0.8,1.7,0.6,3.2c-0.2,2.2-0.6,2.8-0.9,3.6c-0.1,0.2-0.1,0.3-0.1,0.5
		C-312.2-214.3-311.5-213.6-310.7-213.6z"/>
	<g>
		<path class="st0" d="M-348.6-192.2L-348.6-192.2L-348.6-192.2L-348.6-192.2L-348.6-192.2z"/>
		<path class="st0" d="M-258.5-165.4c-2.7-1.6-6.2-0.7-7.7,2c-1.7,2.9-6.6,5.5-10.7,5.6c-3.3,0.1-6.1-1-8.5-3.3
			c-3.6-3.6-5.7-9.5-5.6-16.4c0.1-5.9,1.8-11.4,4.9-15.5c2-2.6,5.4-5.8,10.5-6c1.8-0.1,3.3,0.2,4.5,0.6c0-0.8,0.1-1.6,0.4-2.3
			c0.2-0.5,0.7-0.8,1.2-0.6c0.5,0.2,0.8,0.7,0.6,1.2c-0.2,0.7-0.3,1.4-0.3,2.1c0,0.2,0,0.4,0.1,0.6l0,0c0.6,3,3.3,5.2,6.4,5.1
			c3.5-0.1,6.2-3.1,6.1-6.6c0-0.9-0.3-1.8-0.6-2.5c-0.2-0.5-0.6-1-1-1.4c-4.8-5.2-10.8-7.7-17.9-7.5c-13.7,0.5-24.4,12.8-26,29.1
			c-0.6,4.4-0.9,13.3-0.8,14.7c0,1.4-1.1,2.8-2.8,2.8c-1.6,0-2.8-1.3-2.8-2.8c0-0.1,0.2-9.3,0.6-13.3c0.6-6.3,1.9-15.6,2.7-19.7
			c0.8-3.9-1.8-6.9-4.9-7.4c-3.1-0.6-6.6,1.1-7.2,5c-0.9,5.1-1.4,10.2-2.2,21.2c-0.6,8-0.5,13.2-0.5,14.2c0,1.6-1.3,2.8-2.8,2.8
			s-2.8-1.2-2.8-2.8c-0.1-4.5,0.1-8.9,0.4-13c0.3-5,0.8-13.7,0.9-22.8c0.1-9.4-8.5-15.3-15.3-14.1c-5.2,0.9-9.2,4.5-11.2,7.6
			c-0.4,0.7-0.8,1.4-1.3,2.2c-0.2,0.3-0.5,0.5-0.9,0.5c-0.2,0-0.3,0-0.5-0.1c-0.5-0.3-0.6-0.9-0.4-1.3c0.7-1.4,1.5-2.5,2.2-3.5
			c-1.6-5.7-5.8-11.2-10.8-11.2c-9.6,0-13.8,12.7-12.9,21.3c0,0,0.9,13.8,1.1,18.4c0.2,4.6,0.2,16.2,0.2,16.2l0,0l0,0
			c0,1.6-1.2,2.8-2.8,2.8c-1.7,0-2.8-1.4-2.8-2.8c0-0.9,0.2-8.6-0.2-16.7c-0.5-10.7-1-18.2-1-18.3c-0.2-3.1-2.8-5.5-6-5.3
			c-1.2,0.1-2.2,0.5-3.1,1.1c1,0.6,2,1.4,3,2.2c0.4,0.4,0.5,1,0.1,1.4c-0.3,0.1-0.6,0.3-0.9,0.3c-0.2,0-0.4-0.1-0.6-0.2
			c-2-1.7-5-3.6-8.6-4.5c-1.4-0.3-2.8-0.4-4.3-0.4c-6.6,0-13.1,3-18.4,8.4c-5,5.2-8.4,12-9.5,19.3l0,0c-1.3,8.5,0.7,16.7,5.6,22.3
			c3.9,4.6,9.4,7.1,15.4,7.1l0,0c6.1,0,12.2-2.6,17.2-7.3c0.2-0.2,0.4-0.3,0.7-0.3c0.4,0,0.9,0.2,1.1,0.6l0,0c2.4,4.3,7,6.9,12.1,7
			l0,0c3.7,0,7.2-1.3,9.9-3.9c2.8-2.7,4.3-6.5,4.3-10.3c0,0-0.2-14.3-0.4-19c-0.2-5.5-1-22.2-1-22.2c0-0.6,0.5-1.4,1.4-1.4
			c1,0,1.4,0.9,1.4,1.4c0,0,0.8,16.5,1,22c0.2,7,0.5,27.7,0.5,27.7c0,3.1,2.5,5.7,5.7,5.7c3.2,0,5.7-2.5,5.7-5.7v-36.6
			c0,0.1,0,0,0,0l0,0l0,0l0,0c0-0.6,0.1-1.2,0.2-1.7c0.3-1.6,1-3,2.1-4.1c1.6-1.7,3.9-2.7,6.3-2.7c2.6,0,5.5,1.6,7,3.9
			c0.3,0.5,0.2,1.1-0.3,1.4s-1.1,0.2-1.4-0.3c-1.1-1.7-3.4-3-5.4-3c-0.4,0-0.9,0-1.3,0.1c3.2,0.4,5.7,3.1,5.7,6.4
			c0,5.3-0.6,7.9-1,14.6c-0.4,6-0.5,11.9-0.6,13.1c-0.2,4.1,1,7.6,3.6,10.4c2.5,2.7,6,4.3,9.8,4.3c3.3,0,6.8-1.3,9.5-3.5
			c0.1-0.1,0.2-0.2,0.3-0.3l0.1-0.1c0.6-0.6,1.2-1.1,1.7-1.7c0.3-0.4,1-0.5,1.4-0.1c0.4,0.3,0.5,1,0.1,1.4c-0.6,0.7-1.2,1.3-1.8,1.9
			c2.1,1.5,4.6,2.3,7.4,2.5c0.2,0,0.4,0,0.5,0c4.1,0,7.3-2,9.7-4.5c0.3-0.4,0.6-0.7,0.9-1.1c0.3-0.4,0.9-0.5,1.4-0.2
			c0.4,0.3,0.5,0.9,0.2,1.4c-0.2,0.3-0.6,0.7-1,1.2c0,0,0,0,0.1,0.1c4.4,4.3,9.9,6.5,15.9,6.5c0.3,0,0.6,0,1,0
			c3.7-0.1,7.8-1.3,11.3-3.2c3.9-2.1,6.9-4.9,8.8-8C-254.9-160.4-255.8-163.9-258.5-165.4z M-392.5-180.4c-1.4,9-8.7,16.6-15.9,16.6
			c-3.2,0-5.3-1.6-6.5-2.9c-2.6-2.9-3.6-7.3-2.8-12.1l0,0c1.4-9,8.7-16.6,15.9-16.6c3.2,0,5.3,1.6,6.5,2.9
			C-392.8-189.7-391.8-185.3-392.5-180.4z"/>
		<path class="st0" d="M-441.4-205.1c-0.5-0.3-0.6-0.9-0.3-1.4c0.3-0.5,0.9-0.6,1.4-0.3c1.1,0.7,2.3,1.3,3.5,1.8l0,0
			c0.2,0.1,0.4,0.1,0.6,0.2c2.4,0.8,5,1.2,7.7,1l0,0c6.5-0.4,12.8-3.7,17.7-9.4c4.7-5.4,7.6-12.4,8.3-19.6
			c0.8-8.5-1.7-16.5-6.8-21.7c-4.2-4.3-9.7-6.5-15.7-6.1c-4.1,0.2-8,1.6-11.6,4c-2.1,1.4-4,3.2-5.8,5.2c-1.3,1.5-2.3,3.3-3.4,5v0.1
			c-0.2,0.3-0.5,0.5-0.8,0.5c-0.2,0-0.3,0-0.5-0.1c-0.5-0.3-0.6-0.9-0.3-1.3v-0.1c0.7-1.2,1.4-2.4,2.3-3.6c-1.2-1.9-3.5-3-5.8-2.5
			c-3,0.6-5,3.5-4.5,6.5l0,0l0.1,0.7c0.5,3.8,3.4,24.4,6.8,47.2c0.7,4.4,1.4,8.9,2.1,13.3l5,34.1l0,0c0.5,2.9,2.9,5.1,5.9,5.1l0,0
			h0.1h0.1c0.1,0,0.2,0,0.3,0c0.2,0,0.4,0,0.5-0.1c0.7-0.1,1.3-0.3,1.9-0.6c0.1,0,0.2-0.1,0.2-0.1l0,0c1.8-1.1,3.1-3,3.1-5.3
			c0-0.4-6-40.4-7.5-50.4C-438.6-203.6-440.1-204.3-441.4-205.1z M-439.4-230.2c0.9-9.5,7.7-17.8,14.9-18.2c0.5,0,0.9,0,1.4,0
			c3.8,0.2,6.6,1.5,8.9,4.2c2.1,2.5,3.4,5.7,3.6,9.5c0,0.5-0.4,1-0.9,1c0,0,0,0-0.1,0c-0.5,0-0.9-0.4-1-0.9
			c-0.2-3.4-1.3-6.2-3.2-8.4c-0.1-0.1-0.1-0.1-0.2-0.2c1.4,2.7,2,6.1,1.7,9.8c-0.9,9.5-7.7,17.8-14.9,18.2c-3.2,0.2-5.4-1.3-6.7-2.6
			C-438.5-220.6-439.8-225.1-439.4-230.2z"/>
	</g>
</g>
<g>
	<linearGradient id="SVGID_1_" gradientUnits="userSpaceOnUse" x1="25.6509" y1="42.8554" x2="25.6509" y2="71.3202">
		<stop  offset="0" style="stop-color:#F3C1CC"/>
		<stop  offset="1" style="stop-color:#C2CADF"/>
	</linearGradient>
	<path class="st1" d="M35.4,42.9c-3,4.2-6.1,8.4-9.2,12.8c3.3,5,6.6,10.2,10.1,15.6c-2.3,0-4.3,0.1-6.3-0.1c-0.5,0-1.1-0.7-1.4-1.3
		c-2.4-3.8-4.8-7.7-7.2-11.5c-0.2-0.3-0.4-0.5-0.8-1.1c0,4.8,0,9.3,0,14c-2,0-3.8,0-5.7,0c0-9.5,0-19,0-28.4c1.9,0,3.7,0,5.6,0
		c0,3.9,0,7.8,0,12.2c1.7-2.4,3.2-4.4,4.5-6.5c1.3-1.9,2.5-3.8,3.7-5.7C31,42.9,33.2,42.9,35.4,42.9z"/>
	<linearGradient id="SVGID_2_" gradientUnits="userSpaceOnUse" x1="100.7502" y1="42.8554" x2="100.7502" y2="71.167">
		<stop  offset="0" style="stop-color:#F3C1CC"/>
		<stop  offset="1" style="stop-color:#C2CADF"/>
	</linearGradient>
	<path class="st2" d="M109.2,42.9c0,1.5,0,3,0,4.7c-4,0-7.8,0-11.7,0c0,2.3,0,4.4,0,6.6c3.5,0,7,0,10.6,0c0,1.6,0,3,0,4.7
		c-3.5,0-7,0-10.6,0c0,2.6,0,5,0,7.7c3.9,0,7.9,0,11.9,0c0,1.7,0,3.1,0,4.7c-5.7,0-11.5,0-17.3,0c0-9.4,0-18.9,0-28.3
		C97.8,42.9,103.5,42.9,109.2,42.9z"/>
	<linearGradient id="SVGID_3_" gradientUnits="userSpaceOnUse" x1="168.5179" y1="42.8554" x2="168.5179" y2="71.3258">
		<stop  offset="0" style="stop-color:#F3C1CC"/>
		<stop  offset="1" style="stop-color:#C2CADF"/>
	</linearGradient>
	<path class="st3" d="M170.5,42.9c1.4,0.8,3,1.2,4.1,2.4c2.7,2.9,2,8.1-1.1,10.4c-0.4,0.3-0.8,0.6-1.3,0.9c5.2,2.1,6.8,7.8,3.7,12.3
		c-1.2,1.7-2.8,2.4-4.6,2.4c-3.8,0.2-7.5,0.1-11.5,0.1c0-0.8,0-1.4,0-2.1c0-8.1,0-16.3,0-24.4c0-0.7-0.1-1.3-0.1-2
		C163.2,42.9,166.9,42.9,170.5,42.9z M162.3,68.7c2.7,0,5.4,0.1,8.1,0c2.4-0.2,3.9-1.9,4-4.4c0.3-3.4-0.5-5.2-3.2-5.8
		c-2.9-0.6-5.9-0.7-8.9-1C162.3,61.6,162.3,65.1,162.3,68.7z M162.3,55.4c2.8-0.2,5.4-0.2,8-0.6c1.9-0.3,3.1-2.3,3.1-4.5
		c0-2.4-1-4.1-3.1-4.4c-2.6-0.4-5.3-0.4-8-0.5C162.3,48.8,162.3,51.9,162.3,55.4z"/>
	<linearGradient id="SVGID_4_" gradientUnits="userSpaceOnUse" x1="122.3876" y1="42.8554" x2="122.3876" y2="71.3356">
		<stop  offset="0" style="stop-color:#F3C1CC"/>
		<stop  offset="1" style="stop-color:#C2CADF"/>
	</linearGradient>
	<path class="st4" d="M124.4,42.9c0.2,0.1,0.3,0.3,0.5,0.3c2.9,0.7,4.6,2.5,5,5.2c0.5,3.5-0.5,5.8-3.3,7.6c-0.2,0.1-0.4,0.3-0.7,0.5
		c5.1,1.8,6.9,7.3,3.9,12c-1.3,2-3.1,2.7-5.1,2.8c-3.3,0.1-6.6,0-9.9,0c-0.4,0-0.8,0-1.4,0c0-9.5,0-19,0-28.4
		C117.1,42.9,120.7,42.9,124.4,42.9z M116.2,68.7c2.7,0,5.3,0.1,7.9,0c2.5-0.1,4.1-1.9,4.3-4.4c0.3-3.4-0.6-5.3-3.3-5.9
		c-2.8-0.6-5.8-0.6-8.8-0.9C116.2,61.5,116.2,65,116.2,68.7z M116.2,55.4c2.8-0.2,5.4-0.2,8-0.6c1.9-0.3,3.1-2.4,3.1-4.6
		c0-2.3-1.1-4.2-3.1-4.4c-2.6-0.4-5.3-0.4-8-0.5C116.2,48.8,116.2,51.9,116.2,55.4z"/>
	<linearGradient id="SVGID_5_" gradientUnits="userSpaceOnUse" x1="70.4247" y1="42.8554" x2="70.4247" y2="71.1661">
		<stop  offset="0" style="stop-color:#F3C1CC"/>
		<stop  offset="1" style="stop-color:#C2CADF"/>
	</linearGradient>
	<path class="st5" d="M68,42.9c0,7.8,0,15.6,0,23.6c3.6,0,7.1,0,10.7,0c0,1.6,0,3.1,0,4.7c-5.4,0-10.9,0-16.5,0c0-0.7,0-1.4,0-2.1
		c0-8.1,0-16.1,0-24.2c0-0.7-0.1-1.3-0.1-2C64.1,42.9,66.1,42.9,68,42.9z"/>
	<linearGradient id="SVGID_6_" gradientUnits="userSpaceOnUse" x1="144.6949" y1="42.8554" x2="144.6949" y2="71.3462">
		<stop  offset="0" style="stop-color:#F3C1CC"/>
		<stop  offset="1" style="stop-color:#C2CADF"/>
	</linearGradient>
	<path class="st6" d="M146.1,42.9c3.4,9.3,6.8,18.6,10.2,27.9c0,0.1,0,0.2,0,0.4c-2.5,0.5-2.5,0.5-3.3-2c-0.3-0.7-0.6-1.4-0.8-2.2
		c-1.2-3.4-1.2-3.4-4.4-3.4c-2.7,0-5.4,0-8.1,0c-0.9,0-1.4,0.3-1.6,1.3c-0.4,1.4-0.9,2.8-1.4,4.3c-0.8,2.4-0.8,2.4-3.5,1.9
		c3.5-9.4,6.9-18.8,10.4-28.2C144.3,42.9,145.2,42.9,146.1,42.9z M144.8,45.5c-1.9,5.5-3.7,10.4-5.5,15.5c3.7,0,7.1,0,10.7,0
		C148.3,55.9,146.6,51,144.8,45.5z"/>
	<linearGradient id="SVGID_7_" gradientUnits="userSpaceOnUse" x1="84.3352" y1="42.8554" x2="84.3352" y2="71.189">
		<stop  offset="0" style="stop-color:#F3C1CC"/>
		<stop  offset="1" style="stop-color:#C2CADF"/>
	</linearGradient>
	<path class="st7" d="M87.1,42.9c0,9.4,0,18.8,0,28.3c-1.9,0-3.6,0-5.6,0c0-9.4,0-18.9,0-28.3C83.4,42.9,85.3,42.9,87.1,42.9z"/>
	<linearGradient id="SVGID_8_" gradientUnits="userSpaceOnUse" x1="188.4312" y1="42.8554" x2="188.4312" y2="71.2118">
		<stop  offset="0" style="stop-color:#F3C1CC"/>
		<stop  offset="1" style="stop-color:#C2CADF"/>
	</linearGradient>
	<path class="st8" d="M198.8,43.2c-2.2,3.6-4.2,7.3-6.6,10.8c-2.1,3.1-3.1,6.4-2.7,10.3c0.2,2.3,0,4.6,0,7c-0.9,0-1.6,0-2.6,0
		c0-3.3-0.1-6.6,0-10c0-1.6-0.3-3-1.1-4.4c-2.5-4.1-4.8-8.2-7.2-12.4c-0.3-0.5-0.4-1.1-0.7-1.6c1,0,2,0,3,0
		c2.4,4.4,4.9,8.7,7.4,13.3c2.3-4,4.5-7.8,6.7-11.7c0.3-0.5,0.5-1.1,0.8-1.6C196.8,43,197.8,43.1,198.8,43.2z"/>
	<linearGradient id="SVGID_9_" gradientUnits="userSpaceOnUse" x1="120.0104" y1="80.8765" x2="120.0104" y2="91.7217">
		<stop  offset="0" style="stop-color:#F3C1CC"/>
		<stop  offset="1" style="stop-color:#C2CADF"/>
	</linearGradient>
	<path class="st9" d="M118.8,91.7c-0.1-0.4-0.3-0.8-0.4-1.1c0.3,0,0.6-0.1,0.8,0c1.3,0.4,1.4-0.7,1.4-1.6c0.1-2,0-4,0-6
		c0-0.6,0-1.3,0.1-1.9c0.2,0,0.3-0.1,0.5-0.1c0.2,0.4,0.5,0.8,0.5,1.1c0,2.4,0.1,4.7,0,7.1c-0.1,0.9-0.8,1.7-1.2,2.6
		C119.9,91.7,119.3,91.7,118.8,91.7z"/>
	<linearGradient id="SVGID_10_" gradientUnits="userSpaceOnUse" x1="48.1358" y1="42.8458" x2="48.1358" y2="71.2173">
		<stop  offset="0" style="stop-color:#F3C1CC"/>
		<stop  offset="1" style="stop-color:#C2CADF"/>
	</linearGradient>
	<path class="st10" d="M50.9,71.2c-1.9,0-3.6,0-5.5,0c0-3,0.1-6,0-9c0-0.9-0.3-1.9-0.6-2.7c-2.3-4.9-4.7-9.7-7-14.6
		c-0.2-0.5-0.5-1-0.8-1.8c2.1,0,4-0.1,5.8,0.1c0.4,0,0.9,0.8,1.1,1.3c1.5,3.7,3,7.4,4.7,11.4c0.9-2.2,1.8-4.2,2.6-6.2
		c0.3-0.8,0.6-1.5,1-2.3c2.1-4.8,2.2-5,7.3-4c-1.6,3.4-3,6.8-4.8,9.9c-2.9,5-4.4,10.3-3.7,16.3C50.9,70,50.9,70.6,50.9,71.2z"/>
	<linearGradient id="SVGID_11_" gradientUnits="userSpaceOnUse" x1="140.0865" y1="80.5818" x2="140.0865" y2="90.6884">
		<stop  offset="0" style="stop-color:#F3C1CC"/>
		<stop  offset="1" style="stop-color:#C2CADF"/>
	</linearGradient>
	<path class="st11" d="M137.2,83.5c0,2.6,0,4.8,0,7.2c-1.1-0.6-1.2-2.9-0.9-9.6c2.1,2.2,4.4,4.5,6.9,7c0-1.4-0.1-2.7,0-3.9
		c0.1-1.1-0.6-2.4,0.9-3.6c0,3.6,0,6.8,0,9.9C141.9,88.3,139.6,86,137.2,83.5z"/>
	<linearGradient id="SVGID_12_" gradientUnits="userSpaceOnUse" x1="153.2892" y1="80.8537" x2="153.2892" y2="90.6199">
		<stop  offset="0" style="stop-color:#F3C1CC"/>
		<stop  offset="1" style="stop-color:#C2CADF"/>
	</linearGradient>
	<path class="st12" d="M149.4,80.9c2.3,2.4,4.6,4.7,6.8,7c0.5-2.2-0.4-4.7,0.4-6.9c0.2,0,0.3,0,0.5,0c0,3.2,0,6.4,0,9.4
		c-2-2.1-4.2-4.4-6.7-7c0,2.3,0,4.2,0,6.1c0,0.4-0.4,0.8-0.6,1.2c-0.2-0.4-0.4-0.8-0.4-1.2C149.4,86.6,149.4,83.8,149.4,80.9z"/>
	<linearGradient id="SVGID_13_" gradientUnits="userSpaceOnUse" x1="39.1997" y1="80.863" x2="39.1997" y2="90.7098">
		<stop  offset="0" style="stop-color:#F3C1CC"/>
		<stop  offset="1" style="stop-color:#C2CADF"/>
	</linearGradient>
	<path class="st13" d="M40.4,85.4c1.2,1,1.9,2.3,1.1,3.8c-1.1,2.1-3.1,1.3-4.9,1.5c0-3.2,0-6.3,0-9.6c1.4-0.3,2.9-0.5,3.8,0.8
		c0.5,0.8,0.4,2.2,0.6,3.4C40.7,85.3,40.5,85.4,40.4,85.4z M37.6,90c1.2-0.5,2.1-0.8,2.9-1.3c0.2-0.1,0.2-1.5-0.1-1.6
		c-0.8-0.5-1.8-0.7-2.9-1.1C37.6,87.4,37.6,88.4,37.6,90z M37.6,85c1.2,0.3,2.3,0.1,2.4-1.4c0-1.6-1.1-1.8-2.4-1.7
		C37.6,83,37.6,84,37.6,85z"/>
	<linearGradient id="SVGID_14_" gradientUnits="userSpaceOnUse" x1="174.6088" y1="80.9329" x2="174.6088" y2="90.7252">
		<stop  offset="0" style="stop-color:#F3C1CC"/>
		<stop  offset="1" style="stop-color:#C2CADF"/>
	</linearGradient>
	<path class="st14" d="M174.5,86.4c0.9,1.4,1.7,2.7,2.7,4.3c-2.4-0.3-2.4-3-4.1-4.1c0,1.4,0,2.7,0,4.1c-1.1-0.5-1.4-4.8-0.9-9.5
		c2.3-0.6,3.7,0,4.3,1.7C177,84.4,176.4,85.5,174.5,86.4z M173.2,85.5c1.2-0.1,2.5-0.2,2.4-1.8c0-1.5-1.2-1.8-2.4-1.7
		C173.2,83.1,173.2,84.3,173.2,85.5z"/>
	<linearGradient id="SVGID_15_" gradientUnits="userSpaceOnUse" x1="69.0336" y1="80.8981" x2="69.0336" y2="90.6929">
		<stop  offset="0" style="stop-color:#F3C1CC"/>
		<stop  offset="1" style="stop-color:#C2CADF"/>
	</linearGradient>
	<path class="st15" d="M67.5,84.9c1.8,2.3,3.1,3.9,4.4,5.5c-2.4-0.2-3.1-2.7-4.8-4c-0.1,1.5-0.3,2.9-0.4,4.3c-0.2,0-0.4-0.1-0.6-0.1
		c0-3.2,0-6.4,0-9.6c0.2,0,0.4-0.1,0.6-0.1c0.1,1.2,0.3,2.4,0.4,3.7c1.6-1,2.4-3.3,4.5-3.5C70.3,82.4,69,83.6,67.5,84.9z"/>
	<linearGradient id="SVGID_16_" gradientUnits="userSpaceOnUse" x1="165.1306" y1="81.2049" x2="165.1306" y2="90.4613">
		<stop  offset="0" style="stop-color:#F3C1CC"/>
		<stop  offset="1" style="stop-color:#C2CADF"/>
	</linearGradient>
	<path class="st16" d="M167.1,81.8c-1.1,0-2.2,0-3.4,0c0,1,0,1.9,0,3c1.1,0,2.2,0,3.8,0c-1.3,1.8-2.7,0.6-3.8,1.4c0,1,0,2.1,0,3.3
		c1.2,0.1,2.4,0.2,3.5,0.3c0,0.2,0,0.5-0.1,0.7c-1.5,0-2.9,0-4.5,0c0-3.1,0-6.2,0-9.3c1.5,0,3,0,4.5,0
		C167.2,81.4,167.1,81.6,167.1,81.8z"/>
	<linearGradient id="SVGID_17_" gradientUnits="userSpaceOnUse" x1="102.8511" y1="81.0006" x2="102.8511" y2="90.4455">
		<stop  offset="0" style="stop-color:#F3C1CC"/>
		<stop  offset="1" style="stop-color:#C2CADF"/>
	</linearGradient>
	<path class="st17" d="M104.9,81.8c-1.1,0-2.1,0-3.3,0c0,1,0,1.9,0,3c1.1,0,2.2,0,3.7,0c-1.2,1.8-2.7,0.6-3.7,1.3c0,1.1,0,2.2,0,3.3
		c1.2,0.1,2.3,0.2,3.4,0.3c0,0.2,0,0.4,0,0.6c-1.4,0-2.9,0-4.5,0c0-2.9,0-5.8,0-8.7c0-0.3,0.2-0.7,0.3-0.7c1.4-0.1,2.8,0,4.2,0
		C104.9,81.3,104.9,81.5,104.9,81.8z"/>
	<linearGradient id="SVGID_18_" gradientUnits="userSpaceOnUse" x1="129.2828" y1="80.8843" x2="129.2828" y2="90.4535">
		<stop  offset="0" style="stop-color:#F3C1CC"/>
		<stop  offset="1" style="stop-color:#C2CADF"/>
	</linearGradient>
	<path class="st18" d="M131.7,81.9c-1.5,0-2.6,0-3.8,0c0,1,0,1.8,0,2.6c1,0.8,2.5-0.5,3.6,1.3c-1.4,0.1-2.5,0.1-3.6,0.2
		c0,1.2,0,2.3,0,3.4c1.1,0.1,2.3,0.3,3.4,0.4c0,0.2,0,0.4,0,0.6c-1.4,0-2.8,0-4.5,0c0-2.8,0-5.8,0-8.7c0-0.1,0-0.3,0.1-0.3
		c0.5-0.2,1-0.5,1.4-0.5C129.3,81.1,130.5,80.4,131.7,81.9z"/>
	<linearGradient id="SVGID_19_" gradientUnits="userSpaceOnUse" x1="48.5744" y1="80.7778" x2="48.5744" y2="90.6676">
		<stop  offset="0" style="stop-color:#F3C1CC"/>
		<stop  offset="1" style="stop-color:#C2CADF"/>
	</linearGradient>
	<path class="st19" d="M48.6,84.8c1.3-1.1,1.1-3.5,3.4-4.1c-1.6,3.3-3.7,6.1-3.1,9.9c-1.6-1.3-0.4-3.4-1.2-4.8
		c-0.9-1.5-1.6-3.1-2.6-5.1C47.5,81.3,47.2,83.9,48.6,84.8z"/>
	<linearGradient id="SVGID_20_" gradientUnits="userSpaceOnUse" x1="78.8273" y1="80.8148" x2="78.8273" y2="90.6696">
		<stop  offset="0" style="stop-color:#F3C1CC"/>
		<stop  offset="1" style="stop-color:#C2CADF"/>
	</linearGradient>
	<path class="st20" d="M78.9,84.8c0.8-1.3,1.6-2.6,2.5-3.9c0.1-0.1,0.4,0,0.8,0c-1.5,3.1-3.7,5.8-3,9.7c-1.6-1.3-0.3-3.4-1.2-4.8
		c-0.8-1.5-1.6-3.1-2.6-5C77.8,81.3,77.5,83.9,78.9,84.8z"/>
	<linearGradient id="SVGID_21_" gradientUnits="userSpaceOnUse" x1="94.8651" y1="80.611" x2="94.8651" y2="90.7409">
		<stop  offset="0" style="stop-color:#F3C1CC"/>
		<stop  offset="1" style="stop-color:#C2CADF"/>
	</linearGradient>
	<path class="st21" d="M94.5,90.7c0-3.3,0-6.6,0-10.1C95.6,82.2,95.5,89.8,94.5,90.7z"/>
	<linearGradient id="SVGID_22_" gradientUnits="userSpaceOnUse" x1="88.2239" y1="80.9858" x2="88.2239" y2="90.4851">
		<stop  offset="0" style="stop-color:#F3C1CC"/>
		<stop  offset="1" style="stop-color:#C2CADF"/>
	</linearGradient>
	<path class="st22" d="M86.6,90.5c0-3.2,0-6.4,0-9.5c1.3,1.1,0.7,2.6,0.8,4c0.1,1.5,0,3,0,4.4c0.9,0.2,1.7,0.4,2.4,0.5
		c0,0.2,0,0.4-0.1,0.6C88.7,90.5,87.7,90.5,86.6,90.5z"/>
</g>
</svg>
